<?xml version="1.0" encoding="UTF-8"?>
<!DOCTYPE svg PUBLIC "-//W3C//DTD SVG 1.1//EN" "http://www.w3.org/Graphics/SVG/1.1/DTD/svg11.dtd">
<!-- Creator: CorelDRAW -->
<svg xmlns="http://www.w3.org/2000/svg" xml:space="preserve" width="33.8668mm" height="33.8668mm" version="1.1" style="shape-rendering:geometricPrecision; text-rendering:geometricPrecision; image-rendering:optimizeQuality; fill-rule:evenodd; clip-rule:evenodd"
viewBox="0 0 342.01 342.01"
 xmlns:xlink="http://www.w3.org/1999/xlink"
 xmlns:xodm="http://www.corel.com/coreldraw/odm/2003">
 <defs>
  <style type="text/css">
   <![CDATA[
    .fil0 {fill:#125586}
    .fil5 {fill:#5A51CD}
    .fil2 {fill:#6B44C2}
    .fil3 {fill:#8537B7}
    .fil9 {fill:#A532A6}
    .fil13 {fill:#B1458C}
    .fil10 {fill:#BC2C96}
    .fil11 {fill:#C93B7C}
    .fil12 {fill:#CF5473}
    .fil4 {fill:#DA2C83}
    .fil7 {fill:#E24D63}
    .fil6 {fill:#E9675A}
    .fil8 {fill:#F3945C}
    .fil1 {fill:#F8AF60}
   ]]>
  </style>
 </defs>
 <g id="Слой_x0020_1">
  <metadata id="CorelCorpID_0Corel-Layer"/>
  <path class="fil0" d="M195.86 313.88c0.69,4.17 0.37,18.86 -4.19,22.59 -3.53,2.88 -13.04,0.46 -3.96,-13.17 2.36,-3.54 7.92,-9.06 8.15,-9.41zm69.7 -22.02c-2.66,17.38 -15.84,17.4 -13.17,-7.64 0.32,-3.03 1.22,-6.62 2.47,-8.81 4.35,-7.65 13.68,-3.01 10.71,16.44zm-118.84 -19.39c10.66,-4.59 10.06,26.56 1.78,30.99 -9.7,5.2 -10.55,-27.22 -1.78,-30.99zm34.4 18.66c-0.01,-21.97 13.87,-26.43 13.87,-6.55 0,6.81 -1.09,15.02 -5.13,18.38 -2.97,2.47 -5.4,0.66 -6.81,-2.12 -1.33,-2.63 -1.93,-6.41 -1.93,-9.71zm-59.99 -44.73c0.08,-2.01 -6.98,-3.81 -9.11,-2.91 -1.74,1.99 -1.17,10.2 -1.31,13.55l-9.81 -0.17c-0.74,1.66 -2.25,4.51 -0.87,6.78l10.14 0.32 0.02 7.88c-0,6.49 0.9,14.48 -2.33,20.13 -0.92,1.6 -3.36,5.61 -4.96,6.38 2.03,-10.4 -7.83,-14.26 -14.03,-19.6 1.16,-2.61 3.95,-4.71 4.45,-8.73 0.61,-4.89 -3.27,-5.85 -7.1,-4.66 -5.85,1.81 -9.74,9.43 -4.81,15.58 -0.59,3.03 -6.94,13.2 -9.07,16.43 -9.77,14.8 -4.02,-19.75 -5.01,-25.84 -0.45,-2.73 -2.88,-3.84 -5.11,-4.95 -11.72,-5.87 -16.76,19 -18.78,21.44 0.12,-3.8 0.65,-17.18 0.03,-19.95 -1.6,-1.78 -5.05,-2.6 -7.69,-2.01 -1.13,1.88 -0.77,27.55 -0.78,31.97 -0.01,6.24 -0.99,13.6 7.42,11.89 2.38,-0.49 1.88,-3.8 2.36,-6.28 0.48,-2.45 1.13,-4.76 1.74,-7.01 1.36,-5.05 6.9,-21.68 11.76,-23.19l-0.82 19.86c-0.13,6.51 0.25,20 9.27,16.11 8.87,-3.83 14.8,-20.82 18.34,-24.68 2.75,2.19 12.46,9.99 8.31,16.37 -2.64,4.06 -6.02,1.41 -8.71,-0.48 -3.94,-2.77 -6.89,2.55 -6.53,4.95 0.67,4.49 17.93,8.78 27.42,-3.26 0.99,-1.25 1.71,-2.44 2.57,-3.93 0.8,-1.39 1.41,-3.01 2.12,-4.24 0.57,0.99 0.66,3.98 1,5.41 1.99,8.47 9.62,14.83 16.39,6.85 2.24,-2.64 3.12,-4.83 4.72,-7.76 1.32,5.48 4.43,10.81 10.85,11.16 8.14,0.45 10.35,-4.94 13.14,-8.35 1.09,1.75 0.82,3.36 2.69,5.46 1.25,1.4 3.27,2.53 5.47,2.8 3.69,0.45 6.45,-1.63 8.31,-4.27 0.42,-0.59 1.04,-1.8 1.61,-2.39 2.46,3.36 4.43,7.16 10.63,6.91 3.45,-0.14 6.68,-2.14 8.72,-4.47 0.46,-0.53 1.23,-1.95 1.71,-2.18 0.19,2.98 0.58,3.61 -1.19,5.26l-10.37 9.74c-16.95,16.21 2.84,30.82 13.74,19.91 5.46,-5.47 6.3,-13.63 6.3,-21.64 0,-6.4 -1.35,-9.86 1.35,-13.07 6.51,-7.75 11.61,-16.98 14.8,-27.26l6.79 -0.02c-0.05,1.89 -0.81,4.77 -1.14,6.82 -0.39,2.39 -0.6,4.38 -0.73,6.97 -0.37,7.77 1.73,19.74 11.44,19.81 5.18,0.04 6.76,-3.16 8.87,-6.27 3.36,3.93 5.02,7.48 12.31,5.97 5.53,-1.14 7.22,-4.43 9.97,-8.15 1.28,6.76 9.17,11.37 14.4,6.6 1.11,-1.01 2.4,-3.97 3.28,-4.58l0.31 4.52c1.91,2.3 6.9,2.04 9.48,1.12 0.81,-2.6 0.51,-6.45 0.67,-9.57 0.24,-4.69 3.4,-21.49 6.96,-22.79 0.54,2.6 0.44,7.36 0.64,10.16 0.24,3.29 0.46,6.51 0.88,9.67 0.83,6.17 3.19,12.65 10.2,8.83 0.9,-5.84 0.28,-8.91 2.03,-15.84 0.6,-2.36 1.33,-4.68 2.1,-6.94l2.85 -6.2c-0.14,10.39 -1.73,27.34 7.13,32.34 4.07,2.3 8.77,0.31 10.73,-2.69 1.51,-2.31 3.79,-9.46 2.16,-12.41 -2.83,-0.94 -2.76,3.06 -3.51,5.56 -0.68,2.28 -1.7,5.48 -4.52,4.59 -6.48,-2.03 -2.65,-28.11 -3.55,-33.02 -0.53,-2.91 -7.48,-6.38 -10.28,-4.62 -2.76,1.73 -7.2,18.97 -7.78,24.09 -1.02,-1.64 -0.8,-5.13 -0.91,-7.09 -0.53,-9.66 1.28,-15.02 -5.32,-17.03 -6.4,-1.95 -7.41,4.66 -9.7,11.75 -0.54,1.67 -0.96,4.03 -1.97,5.41 -0.01,-3.52 0.36,-13.37 -0.27,-15.9 -1.62,-0.89 -7.96,-3.57 -8.42,0.16l-0.02 5.78c-0.01,6.02 0.72,17.8 -0.77,22.6 -0.86,2.78 -3.18,9.6 -6.85,8.06 -5.92,-2.48 -0.93,-31.96 -2.75,-35.39 -1.21,-1.31 -2.72,-1.94 -5.01,-2.17 -3.15,-0.33 -3.4,0.41 -4.24,2.66 -10.2,-10.92 -20.4,0.53 -22.25,13.78 -1.42,10.19 1.71,15.3 -1.3,19.4 -2.08,2.83 -4.94,2.75 -6.56,-0.6 -4.57,-9.48 1.29,-22.54 1.17,-28.36 -0.15,-7.07 -10.27,-3.29 -14.98,-2.55 0.2,-3.05 0.49,-5.48 -1.83,-6.52 -7.2,-3.23 -11.84,7.71 -6.12,12 -0.26,2.88 -6.51,19.75 -10.06,21.7l0.27 -29.53c-1.69,-1.06 -2.64,-1.73 -5.03,-2.02 -4.52,-0.54 -4.23,2.83 -4.24,2.79 -0.02,-0.05 -0.06,0.22 -0.13,0.32 -3.04,-6.88 -18.52,-8.92 -21.82,13 -1.37,9.09 1.14,15.82 -2.19,19.92 -2.09,2.58 -5.07,2.6 -6.17,-1.29 -2.25,-7.95 0.83,-29.04 -0.62,-32.42 -1.05,-1.93 -6.55,-3.05 -8.1,-1.93 -0.68,0.49 -0.81,1.63 -1.05,2.59 -3.99,-4.92 -10.35,-6.21 -15.38,-1.99 -3.87,3.24 -6.31,8.65 -7.19,15.13 -1.16,8.53 0.01,11.5 -4.63,17.84 -5.96,8.14 -7.69,-2.99 -7.69,-9.2 -0.26,-7.73 0.56,-18.85 0.82,-26.92l12.08 -0.4c0.92,-1.07 1.92,-3.39 1.07,-5.02 -0.88,-0.93 -1.11,-0.69 -2.84,-0.77l-10.11 -0.6 0.42 -11.01z"/>
  <path class="fil1" d="M64.26 180.95c2.77,13.19 6.42,22.27 17.77,30.38 5.58,3.99 13.88,7.62 21.1,7.85 12.39,0.4 25.49,-0.02 37.96,-0.02 12.79,0 25.66,0.15 38.45,-0.01 -0.85,-0.68 -2.41,-0.54 -2.82,-0.62l8.19 -0.26c-2.91,-0.15 -12.39,0.23 -14.09,-0.56 0.55,-0.66 0.42,-0.68 1.14,-0.79l4.6 -0.09c1.65,-0.01 4.05,-0.26 5.51,-0.06 -4.03,-0.06 -7.02,-0.65 -11.06,-0.62l0.01 -2.38c2.59,-0.01 3.44,0.03 5.57,-0.5l-0.03 -17.04 -5.6 -0.05 -0.05 -2.79 11.14 -0.76c1.85,-0.3 10.27,-0.07 11.19,-0.56 -13.85,-0.49 -57.41,1.81 -67.31,-2.12 -4.6,-1.83 -8.25,-2.95 -12.23,-5.65 -6.73,-4.56 -13.3,-11.01 -16.85,-18.38 -1.36,-2.82 -3.11,-6.07 -4.02,-9.27 -0.64,-2.25 0.22,-0.69 -1.16,-3.3l0.33 2.48 -6.28 -0.26 -0.16 -5.71 -11.15 -0.18 -0.22 -5.65c-2.59,-0.02 -7.49,0.29 -9.73,-0.31 -0.04,7.42 -0.84,31.79 -0.18,37.22z"/>
  <path class="fil2" d="M64.96 44.82l-0.03 11.98c1.23,-0.33 1.49,-0.18 3.05,0.19l0.01 5.41 6.43 -0.01c0.04,-1.9 0.34,-2.05 0.42,-3.58l10.63 0c0.63,-1.3 0.63,-2.33 0.69,-3.68l4.91 0 0.23 1.54c2.78,-0.09 1.76,-0.64 2.55,0.91 0.18,-2.14 0.09,-0.05 1.67,-3.8 0.76,-1.8 2.12,-2.61 2.26,-2.59 1.83,-1.67 5.62,-9.86 16.6,-16.58 7.2,-4.4 15.34,-7.24 25.29,-7.4 21.39,-0.33 43.8,-0.41 65.17,0.08 -1.29,-1.16 -2.36,-0.88 -4.51,-0.84l-1.06 -0.48c-1.29,-0.77 -8.1,-0.06 -10.25,-0.41 -2.14,-0.35 0.76,-0.86 -4.65,-0.81 -1.77,0.02 -3.56,0.02 -5.34,0.02 -2.24,-0.01 -2.64,-0.44 -4.94,-0.44 -1.77,-0 -3.57,-0 -5.34,0.02 -4.85,0.05 -1.36,-0.41 -4.57,-0.79 -1.39,-0.17 -3.12,0.24 -4.36,-0.09 0.3,-0.89 4.59,-0.44 5.75,-0.49l32.62 -0.6c7.59,-0.06 5.09,-0.67 12.42,-0.71l0.05 -2.87c3.45,-0.06 2.3,-0.29 3.31,-0.56 1.72,-0.46 16.97,0.18 18.31,-0.14 1.74,-0.41 1.4,-1.55 0.74,-2.27 -0.87,-0.94 -15.25,0.43 -16.29,-0.64l21.99 0c0.82,-1.9 0.03,-1.65 3.19,-1.63 4.34,0.02 2.12,-0.77 3.46,-1.27l10.36 0c0.3,-0.7 0.3,-1.2 0.63,-1.84l2.89 -0.79c-0.55,-1.34 0.08,-0.64 -1.94,-2.08l-3.46 -2.6c0.56,0.43 0.16,0.11 0.46,-0.32 -4.7,-2.12 -9.57,-4.15 -15.32,-4.48 -6.07,-0.35 -13.3,0 -19.51,0l-117.57 0c1.28,0.27 0.92,0.23 2.31,0.19 8.92,-0.27 23.47,0.05 32.64,0.05l103.9 0.63c-4.36,0.39 -10.34,0.13 -14.9,0.17 -2.96,0.03 -4.35,0.41 -7.1,0.39 -2.71,-0.02 -2.52,-0.46 -7.08,-0.37l-22.34 0.07c-4.8,-0.02 -3.49,0.38 -6.85,0.52l-0.1 2.3c4.15,0.05 7.06,0.37 11.23,0.43l-0.8 0.34 -4.52 0.09c-0.68,1.49 0.17,1.46 -1.52,1.68l-3.58 -0.05c-1.62,0.4 -0.25,0.26 -1.67,1.28 -0.62,0 -3.84,-0.07 -4.18,0.06 -1.41,0.53 -0.5,1.43 -0.85,3.15 -0.44,2.17 -2.27,0.56 -4.81,1.19 -1.9,0.47 -4.56,1.68 -6.21,1.11 -0.18,-0.06 -0.46,-0.77 -2.31,-0.42 -1.06,0.2 -0.5,0.21 -1.07,0.39 -2.32,0.72 -2.75,-0.23 -2.97,2.46 -8.2,0 -3.71,0.76 -7.73,0.79 -0.94,0.01 -1.9,-0.02 -2.84,-0.02 -0.71,1.56 -0.07,1.68 -1.87,1.67 -2.64,-0.01 -5.14,-0.36 -7.24,0.26 -1.63,0.49 -4.37,0.18 -6.17,0.2 -3.73,0.04 0.28,0.78 -7.42,0.78l-0.83 2.48 -4.83 0.43c-1.26,2.78 -0.5,1.18 -2.72,1.66 -1.61,0.35 1.28,-0.4 -0.51,0.19 -6.23,2.06 -8.08,-2.41 -8.75,2.48l-0.45 1.49 -4.6 0c-0.18,0.41 -0.32,1.19 -0.42,1.38 -0.44,0.9 0.28,0.37 -0.66,0.77l-4.26 0c-1.31,0.28 -0.81,1.75 -1.06,3.67l-4.96 0c-1.19,2.68 1.08,2.14 -6.02,2.16 -0.31,5.97 0.65,4.96 -3.59,5 -3.96,0.04 -0.27,1.52 -4.55,1.51l-8.56 0.01 -1.13 2.11c-0.52,-1.41 0.49,-2.43 -1.25,-2.07 -2.18,0.45 0.67,2.26 -1.75,2.07z"/>
  <path class="fil3" d="M105.46 70.98c0.7,0.72 0.26,0.31 0.19,1.28l0.01 7.46 2.75 0.04c0.22,-3.64 0.79,-2.61 4.75,-2.67l6.41 -0.46c0.23,-0.08 0.56,-1.04 3.14,-0.13 0.66,0.23 2.04,1.08 2.63,-0.42 0.01,-0.03 0.49,-3.51 0.49,-3.53l4.64 0c1.41,-1.09 0.3,-1.44 3.16,-1.47l9.64 0.03c2.54,-0.07 2,-0.44 2.06,-2.91l3.93 0.03c1.18,1.91 1.88,1.86 5.19,1.39 4.89,-0.71 10.75,-4.99 23.94,-2.52 2.77,0.52 4.86,1.4 7.28,1.99 0.51,-0.61 0.13,-0.43 0.96,-0.84 0.88,-0.44 0.53,-0.22 1.59,-0.34 3.26,-0.38 2.74,0.07 4.37,1.25 1.38,0.99 1.28,-0.49 1.24,2.09 -0.83,-2.18 0.07,-1.36 0.98,-1.2 1.3,0.23 1.62,0.12 0.97,1.53 0.99,-1.56 3.34,-0.39 4.63,-0.36 0.06,-2.2 -0.54,-4.29 0.61,-5.81 1.24,0.64 1.31,0.57 1.55,3.05 1.12,0.23 0.07,0.11 0.67,-0.34 -0.36,-3.08 -1.63,-4.06 0,-7.82 2.38,-5.48 11.89,-8.79 16.25,1.24 0.13,0.16 0.58,0.36 0.71,0.53 -0.25,-3.72 -2.5,-5.09 -4.97,-6.96 1.08,-0.37 0.38,0.33 1.04,-1.1 0.36,-0.78 0.2,-0.99 0.7,-1.77 1.78,0 3.73,-0.21 4.99,0.35 0.05,-1.98 -0.4,-1.29 1.01,-1.5 0,-0 -0.75,-0.48 -0.81,-0.58 -0.29,-0.5 -0.34,0.35 -0.21,-1.1 1.43,0.9 1.13,1.62 3.24,1.71 -2.53,-2.89 -7.67,-5.94 -12.31,-7.47 -6.15,-2.03 -10.71,-1.93 -17.54,-1.92 -13.12,0.02 -26.24,-0 -39.36,-0 -13.86,0 -23.49,-1.3 -34.16,5.26 -6.5,4 -15.08,13.09 -16.37,24.02z"/>
  <path class="fil4" d="M251.23 143.77c-1.03,8.59 -1.73,12.27 -4.82,19.36 -3.53,8.09 -8.58,12.24 -9.54,14.11l0.57 0.46c0.33,-0.49 0.46,-0.71 0.82,-1.12l2.45 -2.24c0.45,-0.53 0.39,-1.24 1,-1.88l1.14 -1.01c0.73,-0.75 0.9,-1.59 1.44,-2.36l0.19 2.75c-0.34,0.18 -0.21,-0.39 -0.65,0.73 0.9,1.07 0.67,1.5 0.72,3.39l5.62 0.02c0.02,1.74 0.25,2.76 -0.03,3.68l2.85 0c0,0.23 -0.01,0.75 0.03,0.94 0.53,2.31 -0.62,-1.63 0.18,0.6l0.3 0.58 5.16 0.06 0 2.89c1.82,0.03 1.39,-0.41 1.41,1.47 1.91,-0.13 1.42,0.04 2.13,-1.45 2.32,2.83 1.98,3 4.96,2.94l0.03 2.52c-1.54,0.02 -1.69,-0.11 -2.81,0.41 0.06,1.73 0.56,2.6 1.87,3.07 0.88,0.32 -0.31,0.16 0.59,0.06 0.56,-0.06 0.25,-0.42 2.99,-0.34l1.14 1.55c0.33,0.61 0.22,0.98 1.13,2.03 1.01,-1.16 2.05,-4.51 2.67,-5.17 -0.76,-0.95 -0.3,-1.83 0.26,-3.47 1.14,-3.36 1.28,-5.34 1.82,-8.75 0.67,-4.25 0.13,-79.56 0.05,-91.44 -0.03,-4.31 -1.03,-8.54 -1.07,-10.52 -0.02,-1.17 0.02,-2.34 -0.04,-3.46l-1.93 -0.02 -0.09 11.41c-2.95,0 -5.94,0.09 -8.89,0.04 -2.23,-0.04 -3.04,-0.55 -3.25,1.43 -0.11,0.99 0.04,3.21 0.03,4.35l-6.28 0.11 -0.07 -5.1c-0.34,-1.03 0.27,-0.42 -0.7,-0.81 -0.62,0.33 -0.82,-0.56 -0.7,2.94 0.1,2.79 0.08,2.65 -0.72,3.06 -1.48,-1.07 -0.28,-2.84 -0.76,-5.15l-0.31 -0.73c-0.93,1.7 -0.35,24.91 -0.48,29.01 -0.14,4.11 0.37,27.34 -0.37,29.02z"/>
  <path class="fil5" d="M64.72 35.8c0.34,1.3 0.46,7.15 0.25,9.01 2.42,0.19 -0.43,-1.62 1.75,-2.07 1.74,-0.36 0.73,0.65 1.25,2.07l1.13 -2.11 8.56 -0.01c4.29,0.01 0.6,-1.48 4.55,-1.51 4.25,-0.04 3.28,0.96 3.59,-5 7.1,-0.02 4.83,0.52 6.02,-2.16l4.96 0c0.24,-1.92 -0.26,-3.39 1.06,-3.67l4.26 0c0.93,-0.4 0.22,0.13 0.66,-0.77 0.09,-0.19 0.24,-0.97 0.42,-1.38l4.6 0 0.45 -1.49c0.67,-4.89 2.51,-0.42 8.75,-2.48 1.8,-0.59 -1.1,0.16 0.51,-0.19 2.22,-0.48 1.46,1.12 2.72,-1.66l4.83 -0.43 0.83 -2.48c7.7,0 3.69,-0.74 7.42,-0.78 1.8,-0.02 4.54,0.29 6.17,-0.2 2.1,-0.62 4.6,-0.27 7.24,-0.26 1.81,0.01 1.17,-0.11 1.87,-1.67 0.94,0 1.91,0.03 2.84,0.02 4.02,-0.03 -0.47,-0.79 7.73,-0.79 0.22,-2.7 0.56,-1.69 3.22,-2.57 0.1,-0.04 -0.1,-0.12 0.81,-0.29 1.85,-0.35 2.12,0.36 2.31,0.42 1.65,0.57 4.31,-0.64 6.21,-1.11 2.54,-0.63 4.37,0.98 4.81,-1.19 0.35,-1.72 -0.56,-2.63 0.85,-3.15 0.34,-0.13 3.56,-0.06 4.18,-0.06 1.43,-1.02 0.06,-0.88 1.67,-1.28l3.58 0.05c1.69,-0.22 0.84,-0.19 1.52,-1.68 0.84,-0.02 4.25,0.03 4.8,-0.18l0.52 -0.24c-4.17,-0.06 -7.08,-0.37 -11.23,-0.43l0.1 -2.3c3.35,-0.13 2.04,-0.53 6.85,-0.52l22.34 -0.07c4.57,-0.09 4.37,0.35 7.08,0.37 2.75,0.02 4.14,-0.36 7.1,-0.39 4.56,-0.04 10.54,0.22 14.9,-0.17l-103.9 -0.63c-9.17,0 -23.72,-0.32 -32.64,-0.05l-1.38 0.01 -0.92 -0.2c-4.93,1.6 -6.05,0.41 -13.61,4.05 -11.22,5.41 -21.73,17.56 -23.57,31.59z"/>
  <path class="fil6" d="M105.21 135.11c0.79,1.15 0.56,7.17 0.59,8.58 0.88,-0.7 0.03,-0.17 2.67,0.01l10.99 0.03 0.45 1.2c0.5,1.2 -0.91,0.95 5.38,0.95 0.52,1.1 0.44,1.36 1.97,1.48 1.04,0.08 2.59,-0.02 3.69,-0.01 0.35,0.83 0.28,1.45 0.57,2.16l5.4 0.06 0.05 2.14c2.92,-0.39 1.83,-0.18 3.27,0.57 2.26,0.85 2.02,-1.81 2.78,4.51l4.9 0.06c1.24,2.59 0.07,1.43 5.98,1.47l0.13 4.28 2.32 0.01c0.59,0.78 0.36,0.57 0.71,1.45 1.68,0 3.47,0.23 4,0.24 0.5,0.01 2.34,-0.18 4.2,-0.17l0.09 2.89c11.97,-0.02 10.71,-0.37 11.61,2.96 7.75,0.21 3.92,1.81 5.6,4.08 0.58,0.79 1.54,0.47 2.48,1.04 -1.87,0.04 -7.08,-0.24 -8.31,0.38 1.52,0.6 4.33,0.2 5.64,1.09 -0.63,0.54 -0.1,0.56 -2.86,0.56l25.36 0.01c4.06,0.67 11.23,-2.25 13.63,-4.11l-2.1 0.44c-0.08,0.03 -0.17,0.07 -0.25,0.09l-1.89 -1.07c-1.7,-2.24 -1.36,-2.31 -3.8,-2.36l-0.06 -2.8 -2.7 -0.12c0.42,-1.28 0.03,-1.79 -1.07,-2.55 0.08,-0.08 0.22,-0.32 0.24,-0.23 0.03,0.12 1.38,-0.54 0.32,-0.35l-1.02 -1.7c0.37,-1.82 0.54,-0.64 0.67,-2.18l-1.54 -0.85 -0.71 2.2 -2.64 -0.13c0.05,-5.76 0.29,-6.89 -2.86,-8.3l-0.09 -3.11 -2.65 -0.85c-0.62,-0.1 -1.05,0 -1.67,-0.14 -1.98,-0.46 -0.53,-1.8 -4.79,0.2 -1.17,0.55 -1.14,0.88 -1.76,0.12 -3.5,0.89 -6.09,2.2 -10.02,2.94 -10.61,1.99 -21.53,-0.65 -30,-6.17 -5.44,-3.55 -9.07,-7.52 -12.6,-12.88 -5.48,-8.32 -4.65,-12.62 -6.59,-18.39l-0.86 0.27 -0.07 2.55c-1.77,1.42 -1.4,-0.25 -1.49,2.81l-0.65 -1.4c-0.64,1.01 -0.33,1.33 -1.06,1.49l-10.59 -0.04c-0.17,-6.21 -0.97,-2.86 -4.99,-2.84 -0.95,0 -1.9,-0.08 -2.86,-0.08l-0.71 0.82c-0.51,-1.21 0.15,-0.49 -0.19,-0.38l-0.24 17.09z"/>
  <path class="fil4" d="M212.97 106.07c0.2,8.02 -0.35,13.51 -3.34,20.77 -0.78,1.9 -1.89,3.49 -2.51,5.23 -0.13,1.68 -0.67,2.56 -1.41,3.82l-1.36 2.29c-0.23,0.47 -0.55,0.8 0.05,1.12 0.15,-1.46 -0.01,-0.59 0.39,-1.42l3.08 0.05c0.02,2.23 -0.16,1.39 0.43,3.23 0.86,2.87 -0.35,1.89 1.69,2.95l0.56 2.83c0.02,-0.17 0.09,-0.21 0.15,-0.3l0.06 5.56c0.54,0.24 1.18,0.3 1.97,1.11 1.77,1.81 0.53,1.98 0.52,2l2.05 0.05c-0.84,2.3 -0.02,1.17 0.41,1.41 0.93,0.52 0.1,-0.21 0.92,1.43l2.62 0.08 0.03 5.76 2.42 0.07 0.06 2.45c1.71,0.09 1.06,0.02 2.5,1.64l-2.09 2.47c3.2,-1.65 7.8,-7.24 9.94,-10.96 2.53,-4.4 4.69,-9.97 4.81,-15.93l-0.16 -52.19c-2.12,-0.01 -0.91,-0.48 -1.36,0.61 -0.35,1.76 0.49,21.64 -0.69,22.52 -0.67,-1.12 -0.19,-3.3 -0.45,-5.64 -0.44,-4.07 0.28,-15.92 -0.62,-17.56 -0.34,0.48 -0.12,-0.07 -0.32,0.77l-0.12 4.97c-1.32,0.1 -4.52,-0.41 -5.26,0.39 -2.52,2.72 5.11,3.21 -8.15,3.34 -5.2,0.05 -2.29,-0.72 -4.48,-0.66 -0.14,2.26 0.29,3.49 0.23,5.78l-1.12 0.27c-0.95,0.4 -0.03,1.25 -1.47,-0.3z"/>
  <path class="fil7" d="M143.61 112.9c4.11,25.51 32.18,33.14 48.18,14.92 2.21,-2.52 2.89,-4.5 4.58,-7.6 -1.16,-0.53 -0.28,-0.89 -0.97,-1.92 -0.62,-0.94 -0.49,-0.08 -1.36,-0.48 -0.84,-0.38 -0.34,-0.34 -1.35,-1.45 -3.37,-3.68 -3.88,-4.4 -7.63,-4.54 -0.12,-3.17 -0.52,-4.29 -2.44,-5.43 -0.46,0.99 -0.12,0.49 -0.36,1.42l-0.38 1.13c-2.44,-0.07 -0.86,0.19 -2.42,-1.92l-1.48 -1.38c-2.38,-1.57 -0.9,-1.05 -1.77,-2.47l-2.87 -0.04c-0.92,-4.14 -5.04,-2.22 -8.72,-3.35l-11.9 -0.14c-4.88,-0.03 -3.62,0.54 -5.28,-1.94l-0.31 -0.37c-1.31,2.77 -3.08,8.17 -3.14,11.19 -0.03,1.48 0.19,3.44 -0.37,4.36z"/>
  <path class="fil8" d="M104.71 143.74c1.37,9.04 4.04,17.4 10.68,23.53 6.62,6.11 14.11,10.04 23.21,10.27 0.68,0.02 63.64,0.41 65.79,-0.18l0.47 -0.22 -25.36 -0.01c2.76,0 2.23,-0.01 2.86,-0.56 -1.31,-0.89 -4.12,-0.49 -5.64,-1.09 1.23,-0.62 6.44,-0.35 8.31,-0.38 -0.94,-0.58 -1.89,-0.25 -2.48,-1.04 -1.68,-2.27 2.15,-3.88 -5.6,-4.08 -0.9,-3.34 0.36,-2.99 -11.61,-2.96l-0.09 -2.89c-1.87,-0 -3.71,0.18 -4.2,0.17 -0.53,-0.01 -2.32,-0.24 -4,-0.24 -0.35,-0.88 -0.12,-0.67 -0.71,-1.45l-2.32 -0.01 -0.13 -4.28c-5.91,-0.04 -4.74,1.11 -5.98,-1.47l-4.9 -0.06c-0.75,-6.32 -0.51,-3.66 -2.78,-4.51 -1.43,-0.75 -0.34,-0.96 -3.27,-0.57l-0.05 -2.14 -5.4 -0.06c-0.29,-0.71 -0.22,-1.33 -0.57,-2.16 -1.1,-0.01 -2.65,0.09 -3.69,0.01 -1.53,-0.12 -1.45,-0.38 -1.97,-1.48 -6.29,-0 -4.88,0.25 -5.38,-0.95l-0.45 -1.2 -10.99 -0.03c-2.64,-0.18 -1.79,-0.7 -2.67,-0.01 -0.03,-1.41 0.2,-7.42 -0.59,-8.58 0.09,2.09 0.16,4.76 -0.27,6.74 -0.21,0.96 -0.39,0.34 -0.24,1.89z"/>
  <path class="fil3" d="M204.83 27.29c10.79,1.4 19.04,3.9 27.16,10.6l6.61 6.13c1.34,0.27 0.35,0.15 0.73,-0.19 -0.14,-0.32 -0.35,-0.91 -0.53,-1.13 -0.25,-0.31 -1.1,-0.38 -1.39,-1.84l-0.16 -1.44c0.82,-0.47 0.73,-0.1 1.44,-0.63 0.6,-0.44 0.04,-0.36 0.99,-1.11l10.31 0c2.11,-4.23 0.84,-1.73 4.88,-2.29 1.86,-0.26 0.72,-0.41 1.55,-2.04l4.98 0.01 0 -3.28c1.99,-1.16 4.17,-0.3 5.02,-0.54 1.96,-0.54 0.35,-0.33 1.28,-2.04 4.37,0.25 3.82,1.88 3.68,-3.91 0.72,0.27 0.29,0.18 0.66,0.31l1.16 0.31c-1.31,-3.78 -5.69,-9.22 -7.88,-11.44 -3.79,-3.84 -6.32,-5.28 -11.02,-8.15 -0.31,0.43 0.1,0.76 -0.46,0.32l3.46 2.6c2.02,1.43 1.4,0.73 1.94,2.08l-2.89 0.79c-0.33,0.64 -0.33,1.14 -0.63,1.84l-10.36 0c-1.34,0.5 0.88,1.3 -3.46,1.27 -3.16,-0.02 -2.37,-0.26 -3.19,1.63l-21.99 0c1.04,1.07 15.42,-0.3 16.29,0.64 0.66,0.72 1,1.86 -0.74,2.27 -1.34,0.31 -16.59,-0.33 -18.31,0.14 -1,0.27 0.14,0.5 -3.31,0.56l-0.05 2.87c-7.33,0.05 -4.83,0.66 -12.42,0.71l-32.62 0.6c-1.16,0.05 -5.44,-0.4 -5.75,0.49 1.24,0.34 2.96,-0.07 4.36,0.09 3.21,0.38 -0.29,0.84 4.57,0.79 1.77,-0.02 3.57,-0.02 5.34,-0.02 2.3,0 2.7,0.44 4.94,0.44 1.77,0 3.56,0 5.34,-0.02 5.41,-0.06 2.51,0.46 4.65,0.81 2.15,0.35 8.96,-0.36 10.25,0.41l1.06 0.48c2.15,-0.04 3.22,-0.32 4.51,0.84z"/>
  <path class="fil6" d="M204.82 191.99c-0.15,1.21 -3.86,1.49 -4.89,1.59 -1.77,0.16 -5.1,0.5 -6.26,-0.19 0.02,1.64 -0.33,1.29 1.64,1.37 1.71,0.07 1.93,-0.24 3.24,0.41 0.19,0.58 0.41,-0.36 -1.05,1.05l1.7 0.05 0.35 5.46 -1.7 0.65c0.93,0.4 0.34,-0.21 0.64,0.79 0.11,0.36 0.06,1.32 0.06,1.74l2.09 0.38c0,0.85 0.1,1.23 -0.21,1.95 -0.76,1.46 -1.16,-0.53 -1.16,3.48l2.77 0.07 -0.01 2.85c-1.31,0.02 -3.3,-0.12 -4.13,0.38 1.38,0.83 5.01,0.38 6.96,0.41l0.35 2.19 -1.45 0.27c0.65,1.35 0.63,0.28 1.51,1.83 2.66,0.08 9.08,-0.53 10.95,0.44 7.37,-0.15 17.86,0.69 24.62,-0.31 5.33,-0.79 15.56,-4.04 18.01,-7.38 -1.92,-0.14 0.35,0.22 -2.16,-2 -1.02,0.34 0.05,-0.09 -0.62,0.62 -1.23,1.3 -1.27,0.81 -5.87,0.78l-0.03 -2.95 -2.79 -0.01 -0.04 -2.14 -2.83 0 -0.04 -3.63 -5.6 -0.01c-0.08,-3.38 0.77,-2.9 -5.36,-2.9 -0.23,-1.2 -0.27,-1.73 -0.39,-3.23 -3.24,-0.9 -2.89,-4.56 -2.89,-6.72 -2.14,-2.07 -1.41,-1.45 -3.68,-1.68 -1.49,1.69 0.66,1.44 -2.48,1.48 -0.22,-0.33 -1.1,0.78 -0.22,-1.39l-1.01 -0.4c-2.74,0.78 -5.18,2.25 -8.39,3.07 -3.54,0.9 -5.97,1.03 -9.65,1.61z"/>
  <path class="fil9" d="M238.61 44.02c6.06,8.56 8.84,11.85 11.45,22.96 0.48,2.03 0.29,2.14 0.96,4.24 0.04,-0.49 0.03,-1.91 0.11,-2.17 0.54,-1.79 -0.72,-0.73 1.31,-1.19 1.13,0.61 0.4,-0.05 0.88,1.07l0.53 4.36c-0.63,-0.49 -0.33,-0.79 -0.29,-2.05l0.75 0.96 0.01 -4.29c2.02,-0.1 2.88,0.41 5.24,0.38 2.72,-0.03 1.34,-0.64 2.11,-3 1.08,-0.41 1.05,-0.35 2.47,-0.35l0.71 -1.38 1.77 0 0.35 -1.42c3.13,-0.09 3.72,-0.02 6.76,0.25l0.1 -5.12c0.46,-1.07 0.03,-0.73 1.29,-1.03 1.38,0.15 1.16,-0.33 1.04,4.01 -0.09,3.44 0.18,0.51 1.07,2.87 0.01,0.03 0.79,112.75 0.32,116.54 0.54,-6.22 0.1,-71.69 0.1,-79.81 -0,-13.33 -0.01,-26.67 -0.01,-40.01 -0,-6.38 0.34,-13.74 -0.02,-20 -0.22,-3.93 -2.48,-13.33 -4.45,-15.6l-1.16 -0.31c-0.37,-0.13 0.06,-0.04 -0.66,-0.31 0.15,5.79 0.69,4.16 -3.68,3.91 -0.93,1.71 0.68,1.5 -1.28,2.04 -0.85,0.24 -3.03,-0.62 -5.02,0.54l0 3.28 -4.98 -0.01c-0.83,1.63 0.3,1.78 -1.55,2.04 -4.04,0.56 -2.77,-1.94 -4.88,2.29l-10.31 0c-0.95,0.75 -0.4,0.67 -0.99,1.11 -0.7,0.53 -0.62,0.15 -1.44,0.63l0.16 1.44c0.3,1.47 1.14,1.53 1.39,1.84 0.18,0.22 0.39,0.8 0.53,1.13 -0.38,0.35 0.62,0.46 -0.73,0.19z"/>
  <path class="fil7" d="M236.87 177.24c-1.1,0.67 -5.31,4.94 -10.36,8.01 -1.19,0.72 -2.66,1.34 -3.66,2.05l1.01 0.4c-0.89,2.18 -0.01,1.06 0.22,1.39 3.14,-0.03 0.99,0.21 2.48,-1.48 2.27,0.23 1.54,-0.39 3.68,1.68 0,2.17 -0.35,5.82 2.89,6.72 0.13,1.5 0.16,2.03 0.39,3.23 6.13,0 5.28,-0.49 5.36,2.9l5.6 0.01 0.04 3.63 2.83 0 0.04 2.14 2.79 0.01 0.03 2.95c4.59,0.03 4.63,0.52 5.87,-0.78 0.68,-0.71 -0.4,-0.28 0.62,-0.62 2.51,2.23 0.24,1.87 2.16,2 2.33,0.03 11.95,-10.56 13.22,-14.47 -1.23,-1.43 -0.43,-1.21 -1.71,-2.83 -0.01,-0.02 -0.55,-0.74 -0.56,-0.76 -2.74,-0.08 -2.43,0.27 -2.99,0.34 -0.9,0.1 0.3,0.25 -0.59,-0.06 -1.31,-0.47 -1.81,-1.33 -1.87,-3.07 1.11,-0.52 1.26,-0.39 2.81,-0.41l-0.03 -2.52c-2.98,0.06 -2.64,-0.11 -4.96,-2.94 -0.71,1.49 -0.22,1.33 -2.13,1.45 -0.02,-1.89 0.41,-1.45 -1.41,-1.47l0 -2.89 -5.16 -0.06 -0.3 -0.58c-0.81,-2.24 0.35,1.7 -0.18,-0.6 -0.04,-0.19 -0.03,-0.71 -0.03,-0.94l-2.85 0c0.28,-0.93 0.05,-1.95 0.03,-3.68l-5.62 -0.02c-0.05,-1.88 0.18,-2.32 -0.72,-3.39 0.44,-1.12 0.31,-0.55 0.65,-0.73l-0.19 -2.75c-0.54,0.77 -0.7,1.61 -1.44,2.36l-1.14 1.01c-0.6,0.64 -0.55,1.35 -1,1.88l-2.45 2.24c-0.36,0.4 -0.49,0.62 -0.82,1.12l-0.57 -0.46z"/>
  <path class="fil0" d="M17.27 249.07c0.77,2.47 0.02,44.75 -0.03,53.34 -0.01,2.98 -0.14,5.15 -0.68,7.96 -0.28,1.45 -2,6.15 -1.45,7.08 1.06,1.8 4.91,-1.16 5.6,-1.76 5.39,-4.61 6.18,-13.39 6.27,-20.56l0.01 -44.73c0.03,-4.34 0.52,-4.55 -2.81,-6.29 -10.46,-5.47 -25.2,14.62 -24.13,26.63 0.93,10.37 12.64,15.16 11.52,10.38 -0.48,-2.06 -6.4,-7.37 -1.48,-21.43 1.34,-3.83 4.31,-9.29 7.18,-10.61z"/>
  <path class="fil8" d="M179.54 219.15l36.69 0.02c-1.87,-0.96 -8.29,-0.35 -10.95,-0.44 -0.88,-1.55 -0.86,-0.48 -1.51,-1.83l1.45 -0.27 -0.35 -2.19c-1.95,-0.04 -5.58,0.42 -6.96,-0.41 0.83,-0.5 2.82,-0.36 4.13,-0.38l0.01 -2.85 -2.77 -0.07c0,-4.52 0.65,-1.59 1.34,-4.01 0.06,-0.26 0.02,-1.11 0.02,-1.42l-2.09 -0.38c0,-0.43 0.05,-1.38 -0.06,-1.74 -0.3,-1 0.29,-0.39 -0.64,-0.79l1.7 -0.65 -0.35 -5.46 -1.7 -0.05c1.46,-1.41 1.24,-0.47 1.05,-1.05 -1.31,-0.65 -1.53,-0.34 -3.24,-0.41 -1.97,-0.08 -1.62,0.27 -1.64,-1.37 1.16,0.7 4.5,0.36 6.26,0.19 1.03,-0.09 4.74,-0.38 4.89,-1.59l-11.59 0.09c-0.92,0.49 -9.34,0.26 -11.19,0.56l-11.14 0.76 0.05 2.79 5.6 0.05 0.03 17.04c-2.13,0.53 -2.98,0.49 -5.57,0.5l-0.01 2.38c4.03,-0.03 7.03,0.56 11.06,0.62 -1.46,-0.2 -3.86,0.05 -5.51,0.06 -0.51,0 -4.75,-0.05 -5.2,0.23l-0.54 0.65c1.69,0.79 11.18,0.42 14.09,0.56l-8.19 0.26c0.42,0.08 1.97,-0.05 2.82,0.62z"/>
  <path class="fil10" d="M207.56 87.73c0.4,1.9 2.59,5.91 3.4,8.44 1.14,3.57 1.27,6.12 2.01,9.9 1.44,1.54 0.52,0.7 1.47,0.3l1.12 -0.27c0.07,-2.3 -0.37,-3.52 -0.23,-5.78 2.19,-0.06 -0.73,0.71 4.48,0.66 13.26,-0.13 5.63,-0.62 8.15,-3.34 0.74,-0.8 3.94,-0.28 5.26,-0.39l0.12 -4.97c0.19,-0.84 -0.02,-0.29 0.32,-0.77 0.89,1.64 0.18,13.49 0.62,17.56 0.25,2.34 -0.22,4.52 0.45,5.64 1.18,-0.88 0.34,-20.75 0.69,-22.52 0.45,-1.08 -0.76,-0.62 1.36,-0.61l-0.44 -17.53 -3.06 -0.05 -0.07 -2.8c-3.19,0.03 -3.78,-0.45 -5.39,0.05 -0.11,1.79 -0.34,2.97 -0.44,4.34 -0.59,0 -1.55,-0.13 -2.07,0.11 -1.06,0.49 -0.38,2.05 -0.77,0.98 -0.02,-0.06 -0.06,0.19 -0.12,0.26l-8 0.13 -0.08 2.85 -7.17 0.02 -0.71 1.43c-1.5,-0 -3.22,0.01 -3.87,0.27 0.59,2.24 2.86,1.8 2.96,6.08z"/>
  <path class="fil11" d="M153.7 87.47c-1.34,1.84 -2.84,2.78 -4.23,4.59 -4.53,5.92 -6.59,12.77 -5.86,20.84 0.56,-0.92 0.34,-2.88 0.37,-4.36 0.06,-3.02 1.83,-8.42 3.14,-11.19l0.59 0.8c1.19,1.95 0.47,1.52 5,1.51l11.9 0.14c3.68,1.12 7.8,-0.79 8.72,3.35l2.87 0.04c0.87,1.43 -0.6,0.9 1.77,2.47l1.48 1.38c1.56,2.11 -0.02,1.85 2.42,1.92l0.38 -1.13c0.25,-0.93 -0.1,-0.42 0.36,-1.42 1.92,1.14 2.33,2.26 2.44,5.43 3.75,0.14 4.26,0.87 7.63,4.54 1.02,1.11 0.51,1.06 1.35,1.45 0.87,0.39 0.74,-0.46 1.36,0.48 0.69,1.03 -0.19,1.39 0.97,1.92 0.7,-2.43 3.28,-12.23 1.35,-14.89l-1.81 -6.44 -0.64 0.64c-0.56,0.58 -0.63,1.01 -2.21,0.12 -1.58,-0.89 -0.98,-1.09 -1.87,-1.76 -1.14,-0.86 -3.32,-0.35 -4.63,-1.05 -1.33,-0.7 0.09,0.2 -1.5,-1.73 -2.3,-2.79 -2.54,-1.02 -3.99,-0.86 -2.47,0.27 -1.29,-2.19 -4.39,-2.92l-0.13 -2.77c-3.21,-0.06 -6.42,0.12 -7.49,0.07 -1.71,-0.08 -5.95,-0.25 -8.81,-0.25l-0.98 1.7c-1.48,0.02 -1.69,0 -2.66,-0.44 0.59,-0.3 1.03,-0.5 1.44,-1.12 0.47,-0.71 0.29,-0.66 0.17,-1.89 -1.41,0.17 -1.08,0.01 -2.29,0.4l-2.23 0.43z"/>
  <path class="fil10" d="M251.02 71.22l0.22 72.55c0.74,-1.68 0.24,-24.91 0.37,-29.02 0.14,-4.1 -0.45,-27.31 0.48,-29.01l0.31 0.73c0.48,2.3 -0.72,4.08 0.76,5.15 0.81,-0.41 0.82,-0.28 0.72,-3.06 -0.12,-3.5 0.07,-2.61 0.7,-2.94 0.97,0.39 0.36,-0.21 0.7,0.81l0.07 5.1 6.28 -0.11c0.01,-1.14 -0.13,-3.36 -0.03,-4.35 0.21,-1.98 1.02,-1.47 3.25,-1.43 2.95,0.05 5.94,-0.04 8.89,-0.04l0.09 -11.41 1.93 0.02c0.06,1.12 0.01,2.29 0.04,3.46 0.04,1.99 1.04,6.21 1.07,10.52 0.09,11.89 0.63,87.19 -0.05,91.44 -0.54,3.41 -0.67,5.39 -1.82,8.75 -0.56,1.64 -1.02,2.52 -0.26,3.47 0.52,-2 1.23,-3.83 1.74,-5.89 0.54,-2.16 0.75,-4.03 1.07,-6.31 0.47,-3.79 -0.31,-116.51 -0.32,-116.54 -0.9,-2.36 -1.17,0.57 -1.07,-2.87 0.12,-4.34 0.34,-3.86 -1.04,-4.01 -1.27,0.3 -0.83,-0.04 -1.29,1.03l-0.1 5.12c-3.04,-0.27 -3.63,-0.33 -6.76,-0.25l-0.35 1.42 -1.77 0 -0.71 1.38c-1.42,-0 -1.39,-0.06 -2.47,0.35 -0.76,2.36 0.61,2.97 -2.11,3 -2.36,0.03 -3.22,-0.48 -5.24,-0.38l-0.01 4.29 -0.75 -0.96c-0.03,1.26 -0.33,1.56 0.29,2.05l-0.53 -4.36c-0.48,-1.12 0.25,-0.46 -0.88,-1.07 -2.04,0.46 -0.78,-0.6 -1.31,1.19 -0.08,0.26 -0.07,1.69 -0.11,2.17z"/>
  <path class="fil9" d="M219.5 61.53c0.8,4.65 -0.86,9.02 -5.23,10.77 -6.07,2.43 -9.25,-2.37 -11.02,-4.2 -0.6,0.46 0.45,0.57 -0.67,0.34 -0.24,-2.48 -0.32,-2.41 -1.55,-3.05 -1.15,1.52 -0.55,3.61 -0.61,5.81 -1.29,-0.04 -3.64,-1.21 -4.63,0.36 0.65,-1.41 0.32,-1.3 -0.97,-1.53 -0.91,-0.16 -1.81,-0.98 -0.98,1.2 0.04,-2.58 0.14,-1.1 -1.24,-2.09 -1.63,-1.18 -1.11,-1.63 -4.37,-1.25 -1.06,0.12 -0.71,-0.1 -1.59,0.34 -0.83,0.42 -0.45,0.23 -0.96,0.84 1.55,0.88 3.68,1.54 6.66,3.31 4,2.38 8.05,6.01 10.76,9.33 1.3,1.59 2.94,4.7 4.47,6.02 -0.09,-4.29 -2.36,-3.85 -2.96,-6.08 0.65,-0.26 2.37,-0.27 3.87,-0.27l0.71 -1.43 7.17 -0.02 0.08 -2.85 8 -0.13c0.06,-0.08 0.09,-0.32 0.12,-0.26 0.39,1.06 -0.29,-0.5 0.77,-0.98 0.52,-0.24 1.48,-0.11 2.07,-0.11 0.1,-1.36 0.33,-2.54 0.44,-4.34 1.61,-0.5 2.2,-0.02 5.39,-0.05l0.07 2.8 3.06 0.05 0.44 17.53 0.16 52.19c0.56,-1.96 0.17,-46.25 0.2,-52.31 0.07,-13.31 1.1,-22.15 -5.83,-33.23 -1.34,-2.15 -4.26,-6.08 -6.09,-7.14 -2.12,-0.09 -1.81,-0.82 -3.24,-1.71 -0.12,1.45 -0.08,0.6 0.21,1.1 0.06,0.1 0.81,0.58 0.81,0.58 -1.41,0.21 -0.96,-0.48 -1.01,1.5 -1.26,-0.55 -3.21,-0.35 -4.99,-0.35 -0.5,0.78 -0.34,0.99 -0.7,1.77 -0.67,1.43 0.04,0.73 -1.04,1.1 2.47,1.87 4.73,3.24 4.97,6.96 -0.13,-0.16 -0.58,-0.36 -0.71,-0.53z"/>
  <path class="fil3" d="M64.11 82.77l0.45 0c0.27,-2.52 0.11,-5.12 0.16,-7.67 0.03,-1.53 0.62,-5.83 -0.16,-6.55l0.19 14.28c0.98,-1.19 0.62,-4.11 0.62,-5.76 0.32,5.38 0.75,-0.12 0.89,8.22l0.36 -1.16c0.56,-2.01 0.11,-0.83 1.39,-1.77 0.12,-4.41 0.74,-0.85 0.89,-3.87l5.28 -0.01c1.15,-2.34 2.01,-1.43 8.75,-1.45 4.09,-0.01 1.07,0.9 3.65,-0.23 1.09,-0.48 0.45,0.41 1.59,-0.21l1.09 -1.23 0.77 7.32 0.44 0c-0.03,-23.28 6.91,-28.52 7.28,-31.48 -0.14,-0.03 -1.5,0.79 -2.26,2.59 -1.58,3.75 -1.49,1.65 -1.67,3.8 -0.79,-1.55 0.23,-1.01 -2.55,-0.91l-0.23 -1.54 -4.91 0c-0.06,1.35 -0.06,2.38 -0.69,3.68l-10.63 0c-0.08,1.53 -0.38,1.68 -0.42,3.58l-6.43 0.01 -0.01 -5.41c-1.56,-0.38 -1.82,-0.52 -3.05,-0.19l0.03 -11.98c0.21,-1.86 0.1,-7.71 -0.25,-9.01 -1.27,3.55 -0.62,39.82 -0.61,46.97z"/>
  <path class="fil6" d="M64.29 120.65l0.04 8.54c0.96,0.92 0.1,-0.34 0.54,0.89l0.5 3.44c0.15,-0.83 0.76,-0.66 1.74,-1.26 0.04,-0.03 0.14,-0.14 0.23,-0.18l0.5 1.06c0.28,-1.5 0.16,-0.55 0.56,-1.06 1.31,0.58 3.8,0.36 5.67,0.36l0.63 1c1.43,1.95 4.7,-0.96 5.53,1.82l-2.83 0.45c2.87,0 3.31,0.41 3.06,2.12l8.77 0.13 0.09 -5.7c0.63,1.21 0.45,4.11 0.49,5.76 0.03,1.43 0.58,4.54 -0.08,5.51l0.37 -11.33c0.59,-6.17 -0.51,-12.26 -0.68,-18.2l-0.69 4.13c0.53,-1.44 -0.27,-1.77 -0.93,-3.22l-2.08 -0.24c-0.23,0.47 -0.38,0.96 -0.63,1.4l-4.61 0c-0.97,-1.73 0.89,-1.19 -3.28,-1.2 -2.59,-0 -2.54,-0.54 -3.19,1.97 -1.37,-0.7 -4.05,0.33 -5.34,-0.32 -0.5,-0.25 0.2,-1.11 -2.61,-0.23 -0.28,0.09 0.32,-0.8 -0.52,0.27 -1.05,1.34 0.7,3.68 -1.23,4.08z"/>
  <path class="fil12" d="M104.71 143.74c-0.19,-1.93 0.41,-1.15 0.49,-3.89 0.05,-1.55 0.07,-3.21 0.01,-4.75l0.24 -17.09c0.34,-0.1 -0.33,-0.83 0.19,0.38l0.71 -0.82c0.97,0 1.91,0.09 2.86,0.08 4.02,-0.02 4.82,-3.37 4.99,2.84l10.59 0.04c0.73,-0.16 0.43,-0.47 1.06,-1.49l0.65 1.4c0.09,-3.06 -0.28,-1.39 1.49,-2.81l0.07 -2.55 0.86 -0.27 0.03 -10.27c0.14,-1.22 -0.62,-1.35 -0.34,-3.42 0.19,-1.46 0.41,-2.3 -0.24,-3.49l-0.43 -0.02c-2.5,-0.22 -1.74,0.03 -2.8,1.23l-4.61 0.01c-0.74,0.15 -0.51,1.31 -1.42,1.52l-10.2 -0.08c-0.26,1 -0.39,1.34 -0.45,2.76l-2.73 -0.02 -0.13 -5.67c-1.04,-0.29 -0.52,-0.03 -0.79,-1.16 -0.34,-1.39 -0.24,-9.67 -0.11,-10.74l0.07 -9.95 -0.07 68.21z"/>
  <path class="fil7" d="M188.12 149.34c0.62,0.77 0.6,0.43 1.76,-0.12 4.25,-2 2.8,-0.66 4.79,-0.2 0.62,0.15 1.05,0.04 1.67,0.14l2.65 0.85 0.09 3.11c3.14,1.4 2.91,2.54 2.86,8.3l2.64 0.13 0.71 -2.2 1.54 0.85c-0.13,1.54 -0.3,0.36 -0.67,2.18l1.02 1.7c1.06,-0.19 -0.29,0.47 -0.32,0.35 -0.03,-0.09 -0.17,0.15 -0.24,0.23 1.11,0.76 1.49,1.27 1.07,2.55l2.7 0.12 0.06 2.8c2.44,0.05 2.1,0.13 3.8,2.36l1.89 1.07 0.49 -0.18c0.34,-0.1 1.14,-0.2 1.86,-0.35l3.69 -2.36 2.09 -2.47c-1.44,-1.63 -0.79,-1.55 -2.5,-1.64l-0.06 -2.45 -2.42 -0.07 -0.03 -5.76 -2.62 -0.08c-0.82,-1.64 0.01,-0.9 -0.92,-1.43 -0.43,-0.24 -1.24,0.89 -0.41,-1.41l-2.05 -0.05c0.01,-0.01 1.25,-0.19 -0.52,-2 -0.79,-0.8 -1.43,-0.87 -1.97,-1.11l-0.06 -5.56c-0.06,0.09 -0.13,0.13 -0.15,0.3l-0.56 -2.83c-2.04,-1.06 -0.83,-0.08 -1.69,-2.95 -0.59,-1.84 -0.4,-1 -0.43,-3.23l-3.08 -0.05c-0.4,0.83 -0.24,-0.04 -0.39,1.42 -0.6,-0.32 -0.28,-0.65 -0.05,-1.12 1.15,-2.12 2.58,-3.63 2.78,-6.11 -0.88,0.98 -1.27,1.8 -2,2.89 -0.6,0.9 -1.3,1.71 -2.03,2.63 -6.23,7.87 -13.99,10.72 -14.97,11.75z"/>
  <path class="fil12" d="M64.29 120.65c1.94,-0.41 0.18,-2.74 1.23,-4.08 0.84,-1.07 0.24,-0.18 0.52,-0.27 2.81,-0.89 2.11,-0.02 2.61,0.23 1.28,0.64 3.97,-0.38 5.34,0.32 0.68,-2.62 0.35,-1.93 4.98,-2.01 1.83,-0.03 0.66,-0.26 1.49,1.23l4.61 0c0.25,-0.44 0.39,-0.93 0.63,-1.4l2.08 0.24c0.66,1.45 1.46,1.79 0.93,3.22l0.69 -4.13c0.18,5.94 1.28,12.03 0.68,18.2l0.39 0 0 -29c-0.68,0.7 -0.73,1.37 -0.5,2.52l-0.34 -8.42c-1.51,-0.06 -2.58,-0.15 -3.9,0.31 -3.37,1.18 -2.57,-0.34 -6.22,0.9 -1.47,0.5 -2.93,0.25 -4.72,0.25 -0.37,0.77 -0.39,1.36 -0.77,2.12 -2.07,0 -3.67,0.35 -4.95,-0.3 -1.4,-0.72 0.7,-0.08 -0.97,-0.69 -0.19,1.4 -0.42,1.11 -0.45,2.83l-2.52 0.33c-0.17,5.34 -1.62,12.03 -0.85,17.61z"/>
  <path class="fil13" d="M64.56 82.77l-0.45 0 0.04 46.46 0.17 -0.04 -0.04 -8.54c-0.77,-5.57 0.68,-12.26 0.85,-17.61l2.52 -0.33c0.04,-1.72 0.26,-1.44 0.45,-2.83 1.67,0.61 -0.43,-0.03 0.97,0.69 1.28,0.66 2.88,0.3 4.95,0.3 0.38,-0.75 0.4,-1.35 0.77,-2.12 1.79,0 3.25,0.25 4.72,-0.25 3.64,-1.24 2.85,0.27 6.22,-0.9 1.32,-0.46 2.39,-0.37 3.9,-0.31l0.34 8.42c-0.22,-1.15 -0.18,-1.81 0.5,-2.52l0.02 -20.52c-0.57,0 -0.35,-0.06 -0.96,0.31 0,0 0.19,0.56 -0.64,0.62 -1.41,-0.03 -1,-1.46 -2.22,-0.62 -1.76,1.22 -0.4,1.18 -2.63,1.37l-7.53 -0c-2.09,0.01 -1.54,-0.18 -1.92,1.33 -0.49,1.96 0.12,1.59 -2.63,1.6 -0.16,0 -1.76,-0.04 -1.82,-0.05 -1.08,-0.2 -0.7,0.18 -1.18,-0.67l-0.07 2.15c-1.26,-0.11 -1.41,-0.1 -2.62,-0.02l-1.65 -0.13 -0.08 -5.8z"/>
  <path class="fil8" d="M64.26 180.95c-0.66,-5.43 0.14,-29.8 0.18,-37.22 2.24,0.6 7.14,0.29 9.73,0.31l0.22 5.65 11.15 0.18 0.16 5.71 6.28 0.26 -0.33 -2.48c0.2,-2.34 -1.08,-6.89 -1.17,-9.88 -0.1,-3.74 0.05,-7.54 -0.02,-11.29l-0.39 0 -0.37 11.33c0.66,-0.97 0.12,-4.07 0.08,-5.51 -0.04,-1.65 0.14,-4.55 -0.49,-5.76l-0.09 5.7 -8.77 -0.13c0.26,-1.71 -0.18,-2.12 -3.06,-2.12l2.83 -0.45c-0.82,-2.78 -4.1,0.13 -5.53,-1.82l-0.63 -1c-1.87,-0 -4.36,0.23 -5.67,-0.36 -0.4,0.52 -0.28,-0.44 -0.56,1.06l-0.5 -1.06c-0.09,0.04 -0.18,0.15 -0.23,0.18 -0.98,0.6 -1.59,0.43 -1.74,1.26l-0.5 -3.44c-0.43,-1.23 0.43,0.03 -0.54,-0.89l-0.17 0.04 0.11 51.72z"/>
  <path class="fil9" d="M105.46 70.98l-0.68 4.56 -0.07 9.95c0.82,0.85 0.69,0.87 0.77,2.92 0.65,-3.38 -1.37,-2.72 8.32,-2.73l0.71 -2.11c3.03,-0.01 2.91,0.32 5.27,-0.47 1.83,-0.61 3.41,-0.05 5.32,-0.4 1.95,-0.36 0.13,-0.43 3.15,-0.42l2.27 0.05 0.78 -2.39 8.85 -0.22c1.37,-0.21 3.68,-4.27 10.21,-7.86 1.47,-0.81 3.17,-1.5 4.09,-2.25 -3.31,0.48 -4.01,0.53 -5.19,-1.39l-3.93 -0.03c-0.06,2.47 0.48,2.84 -2.06,2.91l-9.64 -0.03c-2.86,0.04 -1.75,0.38 -3.16,1.47l-4.64 0c-0,0.02 -0.48,3.5 -0.49,3.53 -0.59,1.5 -1.97,0.65 -2.63,0.42 -2.58,-0.91 -2.92,0.06 -3.14,0.13l-6.41 0.46c-3.97,0.06 -4.54,-0.96 -4.75,2.67l-2.75 -0.04 -0.01 -7.46c0.08,-0.97 0.51,-0.57 -0.19,-1.28z"/>
  <path class="fil10" d="M153.7 87.47l2.52 -0.54 2 -0.29c0.12,1.22 0.29,1.18 -0.17,1.89 -0.41,0.62 -0.85,0.82 -1.44,1.12 0.97,0.44 1.18,0.46 2.66,0.44l0.98 -1.7c2.86,0 7.1,0.17 8.81,0.25 1.07,0.05 4.28,-0.13 7.49,-0.07l0.13 2.77c3.1,0.73 1.93,3.19 4.39,2.92 1.45,-0.16 1.69,-1.93 3.99,0.86 1.59,1.93 0.17,1.03 1.5,1.73 1.46,0.77 3.56,0.06 4.83,1.22 0.73,0.67 0.22,0.77 1.68,1.59 1.67,0.94 1.64,0.46 2.62,-0.54 0.05,-0.05 0.14,-0.17 0.24,-0.22l1.81 6.44c0.7,-7.19 -7.57,-17.66 -15.62,-21.37 -15.5,-7.14 -26.05,2.71 -28.41,3.51z"/>
  <path class="fil11" d="M105.61 97.38l0.13 5.67 2.73 0.02c0.06,-1.42 0.19,-1.76 0.45,-2.76l10.2 0.08c0.91,-0.21 0.68,-1.37 1.42,-1.52l4.61 -0.01c1.13,-1.27 0.25,-1.44 2.96,-1.21 0.75,0.06 0.22,0 0.27,0 0.65,1.19 0.44,2.03 0.24,3.49 -0.28,2.07 0.48,2.2 0.34,3.42 1.25,-7.55 2.55,-11.19 5.76,-17.31 -0.94,-0.77 -0.09,0.4 -0.49,-0.94 -0.54,-1.81 0.19,1.42 -0.12,-0.7 -0.48,-3.24 -1,-0.74 -1.55,0.65 -0.28,0.71 -0.11,0.37 -0.57,0.93l-1.32 1.32 -5.08 0.59c-1.79,0.63 -2.91,0.39 -5.06,0.39 -0.55,0.62 -0.48,0.64 -0.85,1.47 -8.03,0 -3.51,0.23 -6.58,0.74 -1.56,0.26 -4.96,0.01 -6.81,0.08l-0.69 5.6z"/>
  <path class="fil13" d="M104.7 85.49c-0.12,1.07 -0.23,9.35 0.11,10.74 0.28,1.13 -0.25,0.87 0.79,1.16l0.69 -5.6c1.86,-0.07 5.26,0.18 6.81,-0.08 3.06,-0.51 -1.45,-0.74 6.58,-0.74 0.37,-0.84 0.29,-0.85 0.85,-1.47 2.15,0 3.27,0.24 5.06,-0.39l5.08 -0.59 1.32 -1.32c0.46,-0.56 0.29,-0.22 0.57,-0.93 0.55,-1.38 1.07,-3.88 1.55,-0.65 0.31,2.12 -0.43,-1.11 0.12,0.7 0.4,1.33 -0.45,0.17 0.49,0.94l4.63 -6.31c0.82,-1.07 0.29,-0.16 0.8,-1.24l-8.85 0.22 -0.78 2.39 -2.27 -0.05c-3.02,-0.01 -1.2,0.06 -3.15,0.42 -1.91,0.35 -3.49,-0.21 -5.32,0.4 -2.37,0.79 -2.24,0.46 -5.27,0.47l-0.71 2.11c-9.69,0.01 -7.68,-0.65 -8.32,2.73 -0.07,-2.04 0.05,-2.07 -0.77,-2.92z"/>
  <path class="fil9" d="M64.56 82.77l0.08 5.8 1.65 0.13c1.21,-0.08 1.36,-0.09 2.62,0.02l0.07 -2.15c0.48,0.85 0.1,0.47 1.18,0.67 0.06,0.01 1.66,0.05 1.82,0.05 2.75,-0.01 2.14,0.36 2.63,-1.6 0.38,-1.52 -0.17,-1.32 1.92,-1.33l7.53 0c2.24,-0.19 0.88,-0.15 2.63,-1.37 1.29,-0.9 1.09,1.05 2.53,0.56 0.52,-0.27 0.33,-0.57 0.33,-0.57l0.51 -0.31 -0.77 -7.32 -1.09 1.23c-1.15,0.62 -0.5,-0.26 -1.59,0.21 -2.58,1.13 0.44,0.22 -3.65,0.23 -6.74,0.02 -7.61,-0.89 -8.75,1.45l-5.28 0.01c-0.15,3.02 -0.78,-0.54 -0.89,3.87 -1.6,1.18 -0.56,-0.71 -1.64,2.65 -0.02,0.07 -0.05,0.2 -0.11,0.28 -0.14,-8.35 -0.56,-2.84 -0.89,-8.22 0,1.65 0.36,4.57 -0.62,5.76l-0.19 -14.28c0.78,0.72 0.19,5.02 0.16,6.55 -0.05,2.54 0.11,5.14 -0.16,7.67z"/>
 </g>
</svg>
